<?xml version="1.0" encoding="UTF-8"?>
<svg version="1.1" xmlns="http://www.w3.org/2000/svg" width="232" height="256">
<path d="M0 0 C2.87565959 1.98415075 4.95609288 3.61203009 7.06640625 6.42578125 C7.50390625 9.11328125 7.50390625 9.11328125 7.06640625 11.42578125 C5.06640625 13.42578125 5.06640625 13.42578125 2.31640625 13.86328125 C-1.99657166 13.28268807 -3.76399058 11.31976675 -6.93359375 8.42578125 C-10.54485586 5.9794424 -13.63013505 5.99543538 -17.93359375 6.42578125 C-25.3003701 8.89071022 -29.49036119 13.51809405 -33.12109375 20.30078125 C-35.0023687 24.2461271 -36.01940542 28.15956904 -36.93359375 32.42578125 C-35.79921875 31.91015625 -34.66484375 31.39453125 -33.49609375 30.86328125 C-27.63752219 28.66502077 -22.42563272 29.35078405 -16.74609375 31.80078125 C-15.81796875 32.00703125 -14.88984375 32.21328125 -13.93359375 32.42578125 C-11.11485037 30.61434437 -11.11485037 30.61434437 -9.62109375 29.078125 C-9.06421875 28.53285156 -8.50734375 27.98757812 -7.93359375 27.42578125 C-7.09054688 26.5234375 -6.2475 25.62109375 -5.37890625 24.69140625 C-2.65083549 22.47391249 -0.91451551 22.12939096 2.57421875 22.3828125 C4.45081254 22.63889061 6.32320325 22.92683653 8.19140625 23.23828125 C10.3983995 23.55755447 12.60543438 23.87653997 14.8125 24.1953125 C16.71298096 24.48462646 16.71298096 24.48462646 18.65185547 24.77978516 C23.85404337 25.55724805 29.07142365 26.21088647 34.2890625 26.875 C37.27905829 27.26112417 40.26882492 27.6489661 43.25848389 28.03768921 C45.24958668 28.29565989 47.24100219 28.5512287 49.23272705 28.80435181 C52.06815297 29.16736369 54.90131298 29.54481256 57.734375 29.92578125 C59.01272972 30.08520454 59.01272972 30.08520454 60.31690979 30.24784851 C66.19253117 31.05721498 70.79404241 32.24925402 75.20825195 36.47729492 C77.82300674 40.62634151 79.25399298 44.96366392 80.796875 49.6015625 C81.31802383 51.12558182 81.31802383 51.12558182 81.84970093 52.6803894 C82.60011608 54.87822498 83.3459417 57.0776318 84.087677 59.27841187 C85.67600542 63.99052902 87.28640806 68.69500208 88.8959198 73.3999176 C89.72757246 75.83122093 90.55813774 78.26289646 91.38764954 80.69493103 C95.37329324 92.36841082 99.48891356 103.99384016 103.62890625 115.61328125 C110.39227787 134.62264254 117.03725888 153.67141779 123.62329102 172.74291992 C123.9663176 173.73523117 124.30934418 174.72754242 124.6627655 175.74992371 C125.29900953 177.59090409 125.9343489 179.43219752 126.56855774 181.27388 C127.91277254 185.16359787 129.28618305 189.03355625 130.75488281 192.87817383 C132.73579861 198.23645518 133.0796704 202.89262086 130.94140625 208.23828125 C125.44935726 214.64567173 117.5904103 216.58772847 109.84765625 219.234375 C108.54429125 219.68674399 107.24119526 220.13988869 105.93835449 220.59376526 C102.51370617 221.78460196 99.08565977 222.96533223 95.65673828 224.14379883 C92.21317876 225.32905577 88.77267038 226.52309444 85.33203125 227.71679688 C81.43791714 229.06757906 77.54334611 230.41692125 73.64660645 231.76011658 C71.29468465 232.57105942 68.94432687 233.38655516 66.59570312 234.20700073 C64.12026377 235.06185012 61.64419451 235.89268773 59.15429688 236.7024231 C57.8808102 237.12837271 56.6073712 237.55446488 55.33398438 237.98071289 C53.62281433 238.53922691 53.62281433 238.53922691 51.8770752 239.10902405 C48.81887662 240.54174525 47.89890864 241.46922047 46.50390625 244.48828125 C46.31699219 245.13925781 46.13007813 245.79023438 45.9375 246.4609375 C44.51482796 249.6699242 43.13564963 250.61412176 40.06640625 252.42578125 C35.86929738 253.03397512 31.69536189 252.96136648 27.4609375 252.92749023 C26.18076752 252.93289322 24.90059753 252.9382962 23.58163452 252.94386292 C20.0774014 252.9578056 16.57365993 252.9466566 13.06945419 252.9301517 C9.39891948 252.91628306 5.72841279 252.92276334 2.05786133 252.92628479 C-4.10571194 252.92898549 -10.2690903 252.91552352 -16.43261719 252.89233398 C-23.55420252 252.865725 -30.67546203 252.8639776 -37.79708004 252.87572235 C-44.65338743 252.88650904 -51.50957719 252.88030611 -58.36587524 252.86616707 C-61.28124783 252.86041496 -64.19653413 252.86048382 -67.11190796 252.86523247 C-71.18416014 252.8708996 -75.25592748 252.85166586 -79.328125 252.82983398 C-81.14082382 252.83658646 -81.14082382 252.83658646 -82.99014282 252.84347534 C-84.10045868 252.83357071 -85.21077454 252.82366608 -86.35473633 252.8134613 C-87.79820183 252.80981646 -87.79820183 252.80981646 -89.27082825 252.80609798 C-93.56441308 252.19285504 -96.03038626 250.55573843 -98.72186375 247.18856716 C-100.25200186 243.69979984 -100.31403095 241.03089789 -100.3212738 237.22120667 C-100.32935211 236.14921608 -100.32935211 236.14921608 -100.33759362 235.05556911 C-100.3518742 232.66650838 -100.34476947 230.27800165 -100.33764648 227.88891602 C-100.34335002 226.17379308 -100.35031421 224.45867394 -100.35844421 222.74356079 C-100.37639269 218.08858909 -100.37520406 213.43380571 -100.36950183 208.77880979 C-100.36641241 204.89205725 -100.37249969 201.00534101 -100.37854058 197.11859363 C-100.39258975 187.94906754 -100.39102125 178.77963461 -100.37963867 169.61010742 C-100.36815683 160.15162757 -100.38223334 150.69343124 -100.40903515 141.23498875 C-100.43118912 133.11254808 -100.43783021 124.99019643 -100.43195873 116.8677277 C-100.42858726 112.01729 -100.43101691 107.16703406 -100.44820976 102.31662178 C-100.46367199 97.75533994 -100.45973144 93.19447824 -100.44090462 88.63321304 C-100.43721673 86.96028283 -100.44033306 85.28732153 -100.45079041 83.61441994 C-100.46398907 81.32824216 -100.45246455 79.04345759 -100.43479919 76.75733948 C-100.43458991 75.47885415 -100.43438063 74.20036882 -100.434165 72.88314152 C-99.84194315 68.79276621 -98.49132098 66.63331445 -95.93359375 63.42578125 C-93.7331543 61.83349609 -93.7331543 61.83349609 -91.3203125 60.63671875 C-90.41240967 60.17555664 -89.50450684 59.71439453 -88.5690918 59.23925781 C-87.59625244 58.76456055 -86.62341309 58.28986328 -85.62109375 57.80078125 C-83.55827981 56.76234215 -81.49578972 55.72325953 -79.43359375 54.68359375 C-78.36882812 54.15282227 -77.3040625 53.62205078 -76.20703125 53.07519531 C-72.90826857 51.41302044 -69.6370084 49.70620774 -66.37109375 47.98046875 C-65.32348877 47.42697754 -64.27588379 46.87348633 -63.1965332 46.30322266 C-61.17092047 45.23132185 -59.14599968 44.15811226 -57.12182617 43.08349609 C-56.20763916 42.60348145 -55.29345215 42.1234668 -54.3515625 41.62890625 C-53.54485107 41.20254883 -52.73813965 40.77619141 -51.90698242 40.33691406 C-49.93359375 39.42578125 -49.93359375 39.42578125 -47.93359375 39.42578125 C-47.89492187 38.33523437 -47.89492187 38.33523437 -47.85546875 37.22265625 C-47.07351307 23.36071467 -42.86113356 11.52537946 -32.43359375 1.98828125 C-22.8222344 -5.46844369 -10.60725557 -6.2035844 0 0 Z M-31.93359375 65.42578125 C-30.83078248 66.69779096 -29.72628606 67.96833978 -28.62109375 69.23828125 C-28.00621094 69.94597656 -27.39132813 70.65367188 -26.7578125 71.3828125 C-25.00833859 73.41267756 -25.00833859 73.41267756 -23.18359375 75.01953125 C-22.77109375 75.48359375 -22.35859375 75.94765625 -21.93359375 76.42578125 C-22.24609375 79.11328125 -22.24609375 79.11328125 -22.93359375 81.42578125 C-25.43359375 81.86328125 -25.43359375 81.86328125 -28.93359375 81.42578125 C-31.84894352 79.34114943 -34.395765 76.95072762 -36.93359375 74.42578125 C-39.30519523 76.79738273 -39.25342727 77.43199247 -39.30859375 80.67578125 C-39.19702951 85.3019783 -38.04303561 87.89614455 -34.93359375 91.42578125 C-31.98945715 93.81291903 -30.28257897 94.38771014 -26.49609375 94.80078125 C-21.1141126 94.23425692 -18.14988838 92.80211465 -14.55859375 88.73828125 C-12.59997374 84.74570969 -12.03067877 81.79133137 -12.93359375 77.42578125 C-14.20019908 75.38286943 -15.53245759 73.37888013 -16.93359375 71.42578125 C-17.07796875 70.35328125 -17.22234375 69.28078125 -17.37109375 68.17578125 C-17.55671875 67.26828125 -17.74234375 66.36078125 -17.93359375 65.42578125 C-22.59032305 62.49869426 -27.40982094 62.40993271 -31.93359375 65.42578125 Z " fill="#BCF88F" transform="translate(99.93359375,3.57421875)"/>
<path d="M0 0 C2.87565959 1.98415075 4.95609288 3.61203009 7.06640625 6.42578125 C7.50390625 9.11328125 7.50390625 9.11328125 7.06640625 11.42578125 C5.06640625 13.42578125 5.06640625 13.42578125 2.31640625 13.86328125 C-1.99657166 13.28268807 -3.76399058 11.31976675 -6.93359375 8.42578125 C-10.54485586 5.9794424 -13.63013505 5.99543538 -17.93359375 6.42578125 C-25.3003701 8.89071022 -29.49036119 13.51809405 -33.12109375 20.30078125 C-35.0023687 24.2461271 -36.01940542 28.15956904 -36.93359375 32.42578125 C-35.79921875 31.91015625 -34.66484375 31.39453125 -33.49609375 30.86328125 C-27.63752219 28.66502077 -22.42563272 29.35078405 -16.74609375 31.80078125 C-15.81796875 32.00703125 -14.88984375 32.21328125 -13.93359375 32.42578125 C-11.11485037 30.61434437 -11.11485037 30.61434437 -9.62109375 29.078125 C-9.06421875 28.53285156 -8.50734375 27.98757812 -7.93359375 27.42578125 C-7.09054688 26.5234375 -6.2475 25.62109375 -5.37890625 24.69140625 C-2.65083549 22.47391249 -0.91451551 22.12939096 2.57421875 22.3828125 C4.45081254 22.63889061 6.32320325 22.92683653 8.19140625 23.23828125 C10.3983995 23.55755447 12.60543438 23.87653997 14.8125 24.1953125 C16.71298096 24.48462646 16.71298096 24.48462646 18.65185547 24.77978516 C23.85404337 25.55724805 29.07142365 26.21088647 34.2890625 26.875 C37.27905829 27.26112417 40.26882492 27.6489661 43.25848389 28.03768921 C45.24958668 28.29565989 47.24100219 28.5512287 49.23272705 28.80435181 C52.06815297 29.16736369 54.90131298 29.54481256 57.734375 29.92578125 C59.01272972 30.08520454 59.01272972 30.08520454 60.31690979 30.24784851 C66.19253117 31.05721498 70.79404241 32.24925402 75.20825195 36.47729492 C77.82300674 40.62634151 79.25399298 44.96366392 80.796875 49.6015625 C81.31802383 51.12558182 81.31802383 51.12558182 81.84970093 52.6803894 C82.60011608 54.87822498 83.3459417 57.0776318 84.087677 59.27841187 C85.67600542 63.99052902 87.28640806 68.69500208 88.8959198 73.3999176 C89.72757246 75.83122093 90.55813774 78.26289646 91.38764954 80.69493103 C95.37329324 92.36841082 99.48891356 103.99384016 103.62890625 115.61328125 C110.39227787 134.62264254 117.03725888 153.67141779 123.62329102 172.74291992 C123.9663176 173.73523117 124.30934418 174.72754242 124.6627655 175.74992371 C125.29900953 177.59090409 125.9343489 179.43219752 126.56855774 181.27388 C127.91277254 185.16359787 129.28618305 189.03355625 130.75488281 192.87817383 C132.73579861 198.23645518 133.0796704 202.89262086 130.94140625 208.23828125 C125.44935726 214.64567173 117.5904103 216.58772847 109.84765625 219.234375 C108.54429125 219.68674399 107.24119526 220.13988869 105.93835449 220.59376526 C102.51370617 221.78460196 99.08565977 222.96533223 95.65673828 224.14379883 C92.21317876 225.32905577 88.77267038 226.52309444 85.33203125 227.71679688 C81.43791714 229.06757906 77.54334611 230.41692125 73.64660645 231.76011658 C71.29468465 232.57105942 68.94432687 233.38655516 66.59570312 234.20700073 C64.12026377 235.06185012 61.64419451 235.89268773 59.15429688 236.7024231 C57.8808102 237.12837271 56.6073712 237.55446488 55.33398438 237.98071289 C53.62281433 238.53922691 53.62281433 238.53922691 51.8770752 239.10902405 C48.81887662 240.54174525 47.89890864 241.46922047 46.50390625 244.48828125 C46.31699219 245.13925781 46.13007813 245.79023438 45.9375 246.4609375 C44.51482796 249.6699242 43.13564963 250.61412176 40.06640625 252.42578125 C35.86929738 253.03397512 31.69536189 252.96136648 27.4609375 252.92749023 C26.18076752 252.93289322 24.90059753 252.9382962 23.58163452 252.94386292 C20.0774014 252.9578056 16.57365993 252.9466566 13.06945419 252.9301517 C9.39891948 252.91628306 5.72841279 252.92276334 2.05786133 252.92628479 C-4.10571194 252.92898549 -10.2690903 252.91552352 -16.43261719 252.89233398 C-23.55420252 252.865725 -30.67546203 252.8639776 -37.79708004 252.87572235 C-44.65338743 252.88650904 -51.50957719 252.88030611 -58.36587524 252.86616707 C-61.28124783 252.86041496 -64.19653413 252.86048382 -67.11190796 252.86523247 C-71.18416014 252.8708996 -75.25592748 252.85166586 -79.328125 252.82983398 C-81.14082382 252.83658646 -81.14082382 252.83658646 -82.99014282 252.84347534 C-84.10045868 252.83357071 -85.21077454 252.82366608 -86.35473633 252.8134613 C-87.79820183 252.80981646 -87.79820183 252.80981646 -89.27082825 252.80609798 C-93.56441308 252.19285504 -96.03038626 250.55573843 -98.72186375 247.18856716 C-100.25200186 243.69979984 -100.31403095 241.03089789 -100.3212738 237.22120667 C-100.32935211 236.14921608 -100.32935211 236.14921608 -100.33759362 235.05556911 C-100.3518742 232.66650838 -100.34476947 230.27800165 -100.33764648 227.88891602 C-100.34335002 226.17379308 -100.35031421 224.45867394 -100.35844421 222.74356079 C-100.37639269 218.08858909 -100.37520406 213.43380571 -100.36950183 208.77880979 C-100.36641241 204.89205725 -100.37249969 201.00534101 -100.37854058 197.11859363 C-100.39258975 187.94906754 -100.39102125 178.77963461 -100.37963867 169.61010742 C-100.36815683 160.15162757 -100.38223334 150.69343124 -100.40903515 141.23498875 C-100.43118912 133.11254808 -100.43783021 124.99019643 -100.43195873 116.8677277 C-100.42858726 112.01729 -100.43101691 107.16703406 -100.44820976 102.31662178 C-100.46367199 97.75533994 -100.45973144 93.19447824 -100.44090462 88.63321304 C-100.43721673 86.96028283 -100.44033306 85.28732153 -100.45079041 83.61441994 C-100.46398907 81.32824216 -100.45246455 79.04345759 -100.43479919 76.75733948 C-100.43458991 75.47885415 -100.43438063 74.20036882 -100.434165 72.88314152 C-99.84194315 68.79276621 -98.49132098 66.63331445 -95.93359375 63.42578125 C-93.7331543 61.83349609 -93.7331543 61.83349609 -91.3203125 60.63671875 C-90.41240967 60.17555664 -89.50450684 59.71439453 -88.5690918 59.23925781 C-87.59625244 58.76456055 -86.62341309 58.28986328 -85.62109375 57.80078125 C-83.55827981 56.76234215 -81.49578972 55.72325953 -79.43359375 54.68359375 C-78.36882812 54.15282227 -77.3040625 53.62205078 -76.20703125 53.07519531 C-72.90826857 51.41302044 -69.6370084 49.70620774 -66.37109375 47.98046875 C-65.32348877 47.42697754 -64.27588379 46.87348633 -63.1965332 46.30322266 C-61.17092047 45.23132185 -59.14599968 44.15811226 -57.12182617 43.08349609 C-56.20763916 42.60348145 -55.29345215 42.1234668 -54.3515625 41.62890625 C-53.54485107 41.20254883 -52.73813965 40.77619141 -51.90698242 40.33691406 C-49.93359375 39.42578125 -49.93359375 39.42578125 -47.93359375 39.42578125 C-47.89492187 38.33523437 -47.89492187 38.33523437 -47.85546875 37.22265625 C-47.07351307 23.36071467 -42.86113356 11.52537946 -32.43359375 1.98828125 C-22.8222344 -5.46844369 -10.60725557 -6.2035844 0 0 Z M-33.68359375 41.42578125 C-34.6684375 41.98265625 -35.65328125 42.53953125 -36.66796875 43.11328125 C-37.415625 43.54640625 -38.16328125 43.97953125 -38.93359375 44.42578125 C-38.0756192 57.72438674 -33.03183984 66.13735977 -23.13671875 75.04296875 C-22.54117188 75.72746094 -22.54117188 75.72746094 -21.93359375 76.42578125 C-22.24609375 79.11328125 -22.24609375 79.11328125 -22.93359375 81.42578125 C-25.43359375 81.86328125 -25.43359375 81.86328125 -28.93359375 81.42578125 C-31.84894352 79.34114943 -34.395765 76.95072762 -36.93359375 74.42578125 C-39.30519523 76.79738273 -39.25342727 77.43199247 -39.30859375 80.67578125 C-39.19702951 85.3019783 -38.04303561 87.89614455 -34.93359375 91.42578125 C-31.98945715 93.81291903 -30.28257897 94.38771014 -26.49609375 94.80078125 C-21.1141126 94.23425692 -18.14988838 92.80211465 -14.55859375 88.73828125 C-12.59997374 84.74570969 -12.03067877 81.79133137 -12.93359375 77.42578125 C-14.20019908 75.38286943 -15.53245759 73.37888013 -16.93359375 71.42578125 C-17.68359375 68.05078125 -17.68359375 68.05078125 -17.93359375 65.42578125 C-14.68359375 65.11328125 -14.68359375 65.11328125 -10.93359375 65.42578125 C-7.15478835 69.0003269 -5.24378151 73.0879451 -4.5625 78.22265625 C-4.40095339 85.40672919 -5.15048933 90.84359017 -9.93359375 96.42578125 C-12.45597879 98.4369372 -15.04619905 99.99801875 -17.93359375 101.42578125 C-18.92359375 101.92078125 -18.92359375 101.92078125 -19.93359375 102.42578125 C-27.34805598 103.12160001 -33.83147862 103.02714417 -39.93359375 98.42578125 C-44.19385559 94.44881048 -46.63704975 90.14984823 -47.26953125 84.33984375 C-47.35237096 77.36474021 -47.01942324 73.12117994 -42.93359375 67.42578125 C-41.57544598 63.35133795 -42.98613613 60.61110009 -44.37109375 56.73828125 C-44.61408203 56.03638672 -44.85707031 55.33449219 -45.10742188 54.61132812 C-45.70808815 52.87999593 -46.31979094 51.15249988 -46.93359375 49.42578125 C-52.73014789 51.11082606 -57.93964 53.78140262 -63.30859375 56.48828125 C-64.19675781 56.92849609 -65.08492187 57.36871094 -66 57.82226562 C-71.86701982 60.7640506 -77.60721656 63.89693612 -83.31884766 67.12670898 C-84.05416214 67.54146233 -84.78947662 67.95621567 -85.54707336 68.38353729 C-87.3430778 69.39673699 -89.13840582 70.41113557 -90.93359375 71.42578125 C-90.95692044 93.70413936 -90.97457179 115.98249547 -90.98540592 138.2608633 C-90.99056937 148.60433294 -90.99761299 158.94779499 -91.0090332 169.29125977 C-91.01897856 178.30319237 -91.02544682 187.31511949 -91.02768224 196.32705742 C-91.02898961 201.10189464 -91.03207705 205.87671618 -91.03932381 210.65154839 C-91.04608168 215.14038038 -91.04821119 219.62919014 -91.04670143 224.11802673 C-91.04697786 225.77047916 -91.04898436 227.42293228 -91.05279922 229.07538033 C-91.05773285 231.32151656 -91.05659328 233.56756746 -91.05384827 235.81370544 C-91.05523096 237.70384196 -91.05523096 237.70384196 -91.05664158 239.63216305 C-91.25277232 242.33170493 -91.25277232 242.33170493 -89.93359375 243.42578125 C-88.29332523 243.5262136 -86.64872404 243.55654234 -85.00538635 243.55949402 C-83.40476349 243.56589149 -83.40476349 243.56589149 -81.77180481 243.57241821 C-80.59099838 243.57196503 -79.41019196 243.57151184 -78.19360352 243.57104492 C-76.95796661 243.57440353 -75.72232971 243.57776215 -74.44924927 243.58122253 C-71.05050356 243.58911848 -67.65181892 243.59240149 -64.25306821 243.59303832 C-61.41992962 243.59398579 -58.58679694 243.59766222 -55.75366062 243.60121042 C-49.07169194 243.60936262 -42.38973675 243.61179396 -35.70776367 243.61108398 C-28.80552957 243.61048301 -21.90337358 243.62103703 -15.00115925 243.63682765 C-9.08353098 243.64988539 -3.16592829 243.65526863 2.75171429 243.65462857 C6.28971381 243.65437306 9.82764397 243.6572534 13.3656292 243.66780663 C17.30945794 243.67924851 21.25317881 243.67475163 25.19702148 243.66870117 C26.37580368 243.67432068 27.55458588 243.67994019 28.76908875 243.68572998 C29.83899048 243.68153549 30.90889221 243.677341 32.01121521 243.67301941 C32.94461448 243.67356418 33.87801374 243.67410894 34.83969784 243.67467022 C37.27083904 243.63747068 37.27083904 243.63747068 39.06640625 241.42578125 C39.38106212 238.40919022 39.38106212 238.40919022 39.34056091 234.79629517 C39.34579759 234.10728823 39.35103427 233.4182813 39.35642964 232.70839536 C39.37148985 230.38838404 39.37213609 228.0685921 39.37280273 225.74853516 C39.3804202 224.08972295 39.38884698 222.43091429 39.39802551 220.77210999 C39.42001848 216.25763426 39.42877586 211.74322628 39.43385196 207.22870302 C39.43748994 204.41013435 39.44372708 201.59158357 39.45085335 198.7730217 C39.47536473 188.94535285 39.48840334 179.11773691 39.49194336 169.29003906 C39.49557973 160.12067433 39.52547796 150.95164411 39.56734794 141.78238165 C39.60200678 133.91736403 39.61749104 126.05245749 39.61818939 118.18736398 C39.61898374 113.48666357 39.627794 108.78630363 39.65618706 104.08568192 C39.68229237 99.66475003 39.68461548 95.24444269 39.66853142 90.82346916 C39.66671087 89.19967606 39.67346215 87.57584767 39.68935013 85.95213127 C39.70970495 83.73708671 39.69932522 81.52424921 39.68113708 79.30923462 C39.68415408 77.44926566 39.68415408 77.44926566 39.68723202 75.55172157 C39.33677353 72.24921234 39.33677353 72.24921234 36.67083836 70.0771389 C34.29426893 68.57025911 31.96376199 67.20949784 29.43359375 65.98046875 C28.55469482 65.54847168 27.6757959 65.11647461 26.77026367 64.67138672 C25.83674072 64.21908691 24.90321777 63.76678711 23.94140625 63.30078125 C21.95493147 62.32323391 19.96926786 61.34403666 17.984375 60.36328125 C16.98970215 59.87214844 15.9950293 59.38101563 14.97021484 58.875 C10.69942137 56.74355305 6.47281611 54.53279448 2.25390625 52.30078125 C1.48860596 51.89730469 0.72330566 51.49382813 -0.06518555 51.078125 C-3.97554341 49.01099011 -7.87099153 46.91902044 -11.75390625 44.80078125 C-12.91829224 44.17067139 -12.91829224 44.17067139 -14.10620117 43.52783203 C-15.57642631 42.7313082 -17.04299031 41.92797513 -18.50512695 41.11669922 C-24.67835605 37.78092559 -27.69014176 38.00095154 -33.68359375 41.42578125 Z " fill="#030303" transform="translate(99.93359375,3.57421875)"/>
<path d="M0 0 C0.69593262 0.80050781 1.39186523 1.60101562 2.10888672 2.42578125 C5.40929037 5.36442811 6.93094615 5.75321674 11.2578125 6.1875 C12.50723633 6.32591309 13.75666016 6.46432617 15.04394531 6.60693359 C15.70833618 6.67064148 16.37272705 6.73434937 17.05725098 6.79998779 C19.1567098 7.00306727 21.25117395 7.23478626 23.34667969 7.47509766 C26.33029761 7.81655225 29.31458119 8.15041572 32.29980469 8.47753906 C39.51575551 9.27452468 46.72259393 10.1283684 53.92034912 11.07617188 C55.46708417 11.27457411 57.01520155 11.46249542 58.56451416 11.63964844 C60.73965807 11.88869951 62.90811544 12.17093299 65.078125 12.4609375 C66.31981445 12.61353027 67.56150391 12.76612305 68.84082031 12.92333984 C72.15362087 14.05235456 73.39393189 15.01173793 75.10897827 18.04684448 C77.02101737 22.23811119 78.489457 26.56430761 79.94921875 30.9296875 C80.31889267 32.01100952 80.68856659 33.09233154 81.06944275 34.2064209 C81.86628908 36.5398876 82.6592722 38.87467638 83.4487915 41.21063232 C85.34860385 46.83068819 87.27159834 52.44280417 89.19301605 58.05550003 C89.85046672 59.97696387 90.50687593 61.89878117 91.16314697 63.82064819 C94.8919976 74.73205453 98.72089415 85.60631831 102.59002686 96.46865845 C108.56983453 113.26074974 114.52169621 130.06316937 120.40667725 146.88873291 C121.17118169 149.07066096 121.93843182 151.25162911 122.70855713 153.43157959 C123.77271227 156.44535243 124.82701899 159.46239606 125.87890625 162.48046875 C126.19673569 163.37393509 126.51456512 164.26740143 126.84202576 165.1879425 C127.12820267 166.0156163 127.41437958 166.8432901 127.70922852 167.69604492 C127.95995621 168.41064377 128.2106839 169.12524261 128.4690094 169.86149597 C129.08637095 172.34784913 129.22076521 174.44813188 129 177 C125.05302058 180.27919747 119.79028523 181.62368369 114.984375 183.2578125 C114.10356262 183.56258011 113.22275024 183.86734772 112.31524658 184.18135071 C109.4618922 185.16765889 106.60599654 186.14637202 103.75 187.125 C99.84812083 188.47023579 95.94748105 189.81904663 92.046875 191.16796875 C91.08946411 191.49847733 90.13205322 191.8289859 89.14562988 192.16950989 C80.38378647 195.19941947 71.66378087 198.33618433 62.97167969 201.56103516 C62.07352539 201.89022949 61.17537109 202.21942383 60.25 202.55859375 C59.11304688 202.98096313 59.11304688 202.98096313 57.953125 203.41186523 C56 204 56 204 53 204 C53 168.69 53 133.38 53 97 C61.64705882 93.29411765 61.64705882 93.29411765 68 94 C73.8352557 97.08277659 76.73631271 100.68667561 78.90112305 106.82519531 C79.41131233 108.2575351 79.41131233 108.2575351 79.93180847 109.71881104 C80.46636406 111.25792145 80.46636406 111.25792145 81.01171875 112.828125 C81.38480667 113.89109802 81.75789459 114.95407104 82.14228821 116.04925537 C82.92842017 118.29732471 83.71073412 120.54673229 84.48950195 122.79736328 C85.67992149 126.2281587 86.89099511 129.65118195 88.10351562 133.07421875 C88.86585906 135.26257683 89.62696742 137.45136564 90.38671875 139.640625 C90.74916183 140.65860168 91.11160492 141.67657837 91.48503113 142.72540283 C93.64925989 149.05768922 95.1383766 154.5119465 93.44799805 161.17626953 C90.47976435 166.54878082 86.47342095 168.00729631 80.8125 169.875 C79.17264365 170.45422114 77.53329179 171.03487324 75.89453125 171.6171875 C75.17112549 171.86065918 74.44771973 172.10413086 73.70239258 172.35498047 C71.99413529 172.86896478 71.99413529 172.86896478 71 174 C70.95936168 175.66617115 70.957279 177.33388095 71 179 C79.99676438 178.5425374 88.72854569 176.13821133 96.0625 170.75 C100.49774783 164.45480954 102.82764097 158.80981587 102 151 C100.97768007 146.93134211 99.60174198 143.00758185 98.203125 139.0546875 C97.81308289 137.92604279 97.42304077 136.79739807 97.0211792 135.634552 C96.19649756 133.2573894 95.36574402 130.88232559 94.52929688 128.50927734 C93.25359684 124.88521804 92.00043368 121.25393784 90.75 117.62109375 C89.94403699 115.30682852 89.13678835 112.99301054 88.328125 110.6796875 C87.95504211 109.59831512 87.58195923 108.51694275 87.1975708 107.40280151 C84.23245063 99.04607878 81.18407263 93.34984132 74 88 C70.51541293 86.83847098 67.73309492 86.86729676 64.0625 86.875 C62.22365234 86.87113281 62.22365234 86.87113281 60.34765625 86.8671875 C57.63713664 86.9747227 55.57528745 87.29289313 53 88 C52.98786972 87.17100945 52.98786972 87.17100945 52.97549438 86.32527161 C52.88934687 80.56614414 52.7898389 74.80735684 52.68261719 69.04858398 C52.64436615 66.90020466 52.60950653 64.75176213 52.578125 62.60327148 C52.53239063 59.51262854 52.47440944 56.42241919 52.4140625 53.33203125 C52.40251129 52.37351761 52.39096008 51.41500397 52.37905884 50.42744446 C52.28768411 43.9686095 52.28768411 43.9686095 50 38 C47.84744052 36.85666399 47.84744052 36.85666399 45 36 C43.59226972 35.34245552 42.19475008 34.66286476 40.8046875 33.96875 C40.01594238 33.57534424 39.22719727 33.18193848 38.41455078 32.77661133 C37.57649902 32.35532959 36.73844727 31.93404785 35.875 31.5 C34.9969873 31.06002686 34.11897461 30.62005371 33.21435547 30.16674805 C26.35451633 26.7147435 19.55271901 23.15958088 12.76782227 19.56298828 C5.90043559 15.92795318 -1.02993162 12.43386729 -8 9 C-7.21319823 4.78309614 -5.4942875 3.47156921 -2 1 C-1.34 0.67 -0.68 0.34 0 0 Z " fill="#7DA6F9" transform="translate(94,30)"/>
<path d="M0 0 C6.84924932 -0.50527249 12.36591036 -0.24503989 18 4 C22 8.9 22 8.9 22 13 C21.34 13.33 20.68 13.66 20 14 C19.99635437 14.71330475 19.99270874 15.4266095 19.98895264 16.16152954 C19.95100875 22.8999206 19.8940842 29.63785675 19.81609726 36.37590981 C19.77667005 39.83965511 19.74445879 43.30314804 19.72900391 46.76708984 C19.71089447 50.75390937 19.66092188 54.74002956 19.609375 58.7265625 C19.60814636 59.96427399 19.60691772 61.20198547 19.60565186 62.47720337 C19.42203229 73.28609406 19.42203229 73.28609406 15 78 C11.67884156 81.06439056 9.40677783 81.37827518 4.93383789 81.38818359 C3.70899185 81.39764008 2.48414581 81.40709656 1.22218323 81.4168396 C-0.09766068 81.41076691 -1.41750458 81.40469421 -2.77734375 81.3984375 C-4.14970555 81.40045954 -5.52206631 81.40337206 -6.89442444 81.40713501 C-9.76850632 81.4115538 -12.64230814 81.405143 -15.51635742 81.39111328 C-19.1928667 81.37403735 -22.86871816 81.3838546 -26.54520321 81.40183067 C-29.37887995 81.41269458 -32.21240193 81.40921004 -35.04608345 81.4014473 C-37.05847222 81.3984837 -39.07086711 81.40756633 -41.08323669 81.4168396 C-42.31123489 81.40738312 -43.53923309 81.39792664 -44.80444336 81.38818359 C-45.88269882 81.38579681 -46.96095428 81.38341003 -48.07188416 81.38095093 C-51.42271539 80.94500429 -53.28582178 79.9804847 -56 78 C-60.2702038 72.36167265 -59.44956386 65.46860076 -59.43359375 58.71875 C-59.4388356 57.43190308 -59.44407745 56.14505615 -59.44947815 54.81921387 C-59.45838548 52.10252028 -59.45601306 49.38612105 -59.44604492 46.66943359 C-59.43454832 43.1991889 -59.45478748 39.72996078 -59.48396206 36.25984955 C-59.50678418 32.93359674 -59.49985533 29.60757913 -59.49609375 26.28125 C-59.50732773 25.04048706 -59.51856171 23.79972412 -59.53013611 22.5213623 C-59.4418381 11.58966172 -59.4418381 11.58966172 -55 7 C-50.38556638 2.85058256 -44.66671129 3.52416313 -38.79296875 3.48828125 C-37.71243729 3.47033005 -36.63190582 3.45237885 -35.51863098 3.43388367 C-32.07496008 3.37979737 -28.63142768 3.34588955 -25.1875 3.3125 C-22.84959011 3.27932553 -20.51169849 3.24483576 -18.17382812 3.20898438 C-12.44934294 3.12407181 -6.7248398 3.05571469 -1 3 C-0.67 2.01 -0.34 1.02 0 0 Z " fill="#E7FDD7" transform="translate(94,142)"/>
<path d="M0 0 C0.53394179 1.4117783 1.05165104 2.82970244 1.5625 4.25 C1.85253906 5.03890625 2.14257812 5.8278125 2.44140625 6.640625 C3.09096095 9.38419871 3.13257033 10.42195243 2 13 C-0.56030273 14.69165039 -0.56030273 14.69165039 -3.93359375 16.34765625 C-4.52672867 16.64562607 -5.11986359 16.94359589 -5.73097229 17.25059509 C-7.62687152 18.20118537 -9.53117632 19.13301397 -11.4375 20.0625 C-13.33910338 20.99755317 -15.23840765 21.93656522 -17.13331604 22.88511658 C-18.85426067 23.74549408 -20.58213634 24.59196594 -22.31030273 25.43774414 C-25.23206745 26.87047096 -25.23206745 26.87047096 -27 30 C-27.31078357 33.02739304 -27.31078357 33.02739304 -27.27174377 36.54214478 C-27.27683061 37.20962152 -27.28191745 37.87709826 -27.28715843 38.56480157 C-27.30184497 40.80579184 -27.30235328 43.04656261 -27.30297852 45.28759766 C-27.3106379 46.89231292 -27.31918393 48.49702415 -27.32855225 50.10173035 C-27.34684356 53.55901152 -27.35887393 57.01623845 -27.36609077 60.47356033 C-27.37755796 65.93493815 -27.40300456 71.39619562 -27.43040466 76.85751343 C-27.47207114 85.49061548 -27.50448027 94.12372326 -27.53287882 102.75687826 C-27.58385556 118.22981411 -27.645875 133.70270027 -27.71821922 149.17555082 C-27.74320178 154.61030949 -27.76260586 160.04505211 -27.77760136 165.47984719 C-27.78777209 168.85269186 -27.8019175 172.22551161 -27.81707764 175.59833717 C-27.8232572 177.16854455 -27.82770294 178.7387598 -27.83033562 180.30897713 C-27.83412006 182.44330561 -27.84390959 184.5775228 -27.85523987 186.71182251 C-27.85909478 187.90902231 -27.8629497 189.10622211 -27.86692142 190.3397007 C-28 193 -28 193 -29 194 C-31.33160055 194.09909302 -33.66629942 194.12970504 -36 194.125 C-37.27875 194.12757813 -38.5575 194.13015625 -39.875 194.1328125 C-43 194 -43 194 -44 193 C-44.0970006 190.79774546 -44.12186709 188.59231336 -44.12025452 186.38792419 C-44.12110894 185.68878232 -44.12196337 184.98964044 -44.12284368 184.26931244 C-44.12450051 181.90925249 -44.11897384 179.54926247 -44.11352539 177.18920898 C-44.11324354 175.50435386 -44.11340122 173.81949861 -44.1139679 172.13464355 C-44.11425594 167.54599547 -44.10835811 162.9573733 -44.10139394 158.36873126 C-44.09516153 153.57875368 -44.09455669 148.78877557 -44.09336853 143.99879456 C-44.09025488 134.92170968 -44.08204104 125.84463679 -44.07201904 116.7675572 C-44.06085895 106.43641419 -44.05534772 96.10527061 -44.05032361 85.77412307 C-44.03985845 64.51607535 -44.02225836 43.25803843 -44 22 C-40.46834052 20.06894797 -36.93589949 18.13932993 -33.40332031 16.20996094 C-32.40809357 15.66576508 -31.41286682 15.12156921 -30.38748169 14.56088257 C-23.89275189 11.01484558 -17.38251078 7.53253076 -10.75 4.25 C-9.91210938 3.8271875 -9.07421875 3.404375 -8.2109375 2.96875 C-2.2541599 0 -2.2541599 0 0 0 Z " fill="#D9FEBD" transform="translate(53,53)"/>
<path d="M0 0 C1.01752853 -0.00307663 2.03505707 -0.00615326 3.0834198 -0.00932312 C4.17520035 -0.0021376 5.2669809 0.00504791 6.3918457 0.01245117 C7.51581253 0.01290939 8.63977936 0.01336761 9.79780579 0.01383972 C12.17071592 0.01685878 14.54362412 0.02473472 16.91650391 0.03710938 C20.56395418 0.0554015 24.21115116 0.05761879 27.85864258 0.05737305 C30.16137916 0.0622869 32.46411402 0.06811464 34.7668457 0.07495117 C35.86469894 0.076064 36.96255219 0.07717682 38.09367371 0.07832336 C39.60578178 0.08789314 39.60578178 0.08789314 41.1484375 0.09765625 C42.04016159 0.10146805 42.93188568 0.10527985 43.85063171 0.10920715 C45.88012695 0.24291992 45.88012695 0.24291992 46.88012695 1.24291992 C46.92093478 3.24250356 46.92267052 5.24337246 46.88012695 7.24291992 C44.51402604 8.42597038 43.07271005 8.37346365 40.43383789 8.38476562 C39.51237976 8.39180008 38.59092163 8.39883453 37.64154053 8.40608215 C36.14315643 8.41232857 36.14315643 8.41232857 34.61450195 8.41870117 C32.5064191 8.44190386 30.39834615 8.46602138 28.2902832 8.4909668 C24.96127745 8.52605804 21.63263484 8.5554098 18.3034668 8.56884766 C15.09419533 8.58434332 11.88599085 8.62457028 8.67700195 8.66870117 C7.19076324 8.66583855 7.19076324 8.66583855 5.67449951 8.66291809 C-0.0492349 8.76397054 -3.68764142 9.23774768 -8.11987305 13.24291992 C-10.21769492 16.52251215 -10.37265896 19.16528353 -10.37866211 23.01782227 C-10.38496643 24.17937836 -10.39127075 25.34093445 -10.39776611 26.53768921 C-10.39371765 27.78877472 -10.38966919 29.03986023 -10.38549805 30.32885742 C-10.3874115 31.61853424 -10.38932495 32.90821106 -10.39129639 34.23696899 C-10.394242 36.96556393 -10.38996963 39.69402775 -10.38061523 42.42260742 C-10.36924357 45.90832703 -10.37576899 49.39373784 -10.38776016 52.87944603 C-10.39675743 56.21677405 -10.39044221 59.55402065 -10.38549805 62.89135742 C-10.38954651 64.13839447 -10.39359497 65.38543152 -10.39776611 66.67025757 C-10.39146179 67.83811798 -10.38515747 69.00597839 -10.37866211 70.20922852 C-10.37707092 71.23196869 -10.37547974 72.25470886 -10.37384033 73.30844116 C-10.08442675 76.65248603 -9.55564118 79.19944164 -8.11987305 82.24291992 C-4.50541744 84.43351848 -1.10083084 84.50394771 3.05981445 84.53344727 C4.28458496 84.54620697 5.50935547 84.55896667 6.77124023 84.57211304 C8.08592285 84.57433868 9.40060547 84.57656433 10.75512695 84.57885742 C12.12605934 84.5852895 13.49699037 84.59201817 14.86791992 84.59902954 C17.73595361 84.61097968 20.60386702 84.61471253 23.47192383 84.61352539 C27.14064842 84.61332191 30.80860088 84.64066269 34.47714233 84.67506981 C37.30651369 84.69733945 40.1356989 84.70136299 42.96514893 84.70030594 C44.97316218 84.70380177 46.98111734 84.72545733 48.98901367 84.74740601 C50.82616943 84.73817612 50.82616943 84.73817612 52.70043945 84.72875977 C53.77567871 84.7316098 54.85091797 84.73445984 55.95874023 84.73739624 C59.63550187 84.11506454 61.25105279 82.84952367 63.88012695 80.24291992 C66.06874641 77.04543145 66.14440113 74.30478624 66.18310547 70.48046875 C66.19974747 69.32279495 66.21638947 68.16512115 66.23353577 66.97236633 C66.24194992 65.72746933 66.25036407 64.48257233 66.2590332 63.19995117 C66.28499183 61.24579328 66.31095525 59.29163543 66.33721066 57.3374815 C66.37157953 54.60502208 66.39718034 51.8725076 66.42272949 49.13995361 C66.46849826 44.34504309 66.52424527 39.55027614 66.58543396 34.75553894 C66.61750907 32.20263202 66.64436168 29.64965345 66.66566467 27.09663391 C66.67915451 25.9484166 66.69264435 24.80019928 66.70654297 23.6171875 C66.72081078 22.09306999 66.72081078 22.09306999 66.73536682 20.53816223 C66.88012695 18.24291992 66.88012695 18.24291992 67.88012695 17.24291992 C70.88012695 17.11791992 70.88012695 17.11791992 73.88012695 17.24291992 C75.61954609 18.98233906 75.03470488 21.36933874 75.05712891 23.73730469 C75.07638176 25.50032677 75.07638176 25.50032677 75.09602356 27.29896545 C75.10341049 28.58113449 75.11079742 29.86330353 75.1184082 31.18432617 C75.12647995 32.49570053 75.1345517 33.80707489 75.14286804 35.15818787 C75.15791662 37.94334791 75.16774156 40.72848227 75.17529297 43.51367188 C75.18630779 47.06559914 75.22063981 50.61689125 75.26046467 54.16859531 C75.29306702 57.56964566 75.29742344 60.97063169 75.3059082 64.37182617 C75.32341629 65.63982559 75.34092438 66.90782501 75.35896301 68.21424866 C75.33915928 76.31976878 74.58368787 81.95109765 69.1340332 88.26635742 C68.57586914 88.71237305 68.01770508 89.15838867 67.44262695 89.61791992 C66.60924805 90.31014648 66.60924805 90.31014648 65.7590332 91.01635742 C61.49380219 93.8007286 57.73779537 94.50121049 52.68798828 94.56518555 C51.45933548 94.58440063 50.23068268 94.60361572 48.96479797 94.62341309 C47.63059235 94.63311289 46.296378 94.6416696 44.9621582 94.64916992 C43.94518136 94.65765205 43.94518136 94.65765205 42.90765953 94.66630554 C39.31700476 94.69622212 35.72650918 94.71472109 32.13574219 94.72338867 C28.45148277 94.734326 24.76871381 94.78232585 21.08491993 94.83933258 C18.23046311 94.87684188 15.37635549 94.88700999 12.5216732 94.89006042 C10.51100332 94.89895387 8.50052143 94.93612577 6.4901886 94.97399902 C-1.83316662 94.93385287 -7.6187058 93.62445118 -14.11987305 88.24291992 C-18.40714807 82.99100802 -20.3561247 78.08122204 -20.42626953 71.32617188 C-20.44225693 70.15758133 -20.45824432 68.98899078 -20.47471619 67.7849884 C-20.48007889 66.52973862 -20.48544159 65.27448883 -20.4909668 63.98120117 C-20.49999527 62.68022995 -20.50902374 61.37925873 -20.51832581 60.03886414 C-20.53478624 57.28597542 -20.54250988 54.53320782 -20.54541016 51.78027344 C-20.55077604 48.27777174 -20.58839135 44.77643323 -20.63415432 41.27425861 C-20.67133036 37.9057482 -20.67245206 34.53740933 -20.6784668 31.16870117 C-20.69799911 29.92357254 -20.71753143 28.67844391 -20.73765564 27.39558411 C-20.69479751 19.04393039 -19.43536182 11.93226894 -13.60618591 5.59809875 C-9.29024269 1.82173879 -5.70525008 -0.00909293 0 0 Z " fill="#060705" transform="translate(46.119873046875,137.757080078125)"/>
<path d="M0 0 C4.38277939 0.11135919 6.86554899 1.54150613 10.25 4.375 C12.6026852 7.1679577 13.93990686 9.76567993 15.15112305 13.20019531 C15.49124924 14.1550885 15.83137543 15.10998169 16.18180847 16.09381104 C16.53817886 17.11988464 16.89454926 18.14595825 17.26171875 19.203125 C17.82135063 20.79758453 17.82135063 20.79758453 18.39228821 22.42425537 C19.17842017 24.67232471 19.96073412 26.92173229 20.73950195 29.17236328 C21.92992149 32.6031587 23.14099511 36.02618195 24.35351562 39.44921875 C25.11585906 41.63757683 25.87696742 43.82636564 26.63671875 46.015625 C26.99916183 47.03360168 27.36160492 48.05157837 27.73503113 49.10040283 C29.90044209 55.43614821 31.39127396 60.89303335 29.69360352 67.56005859 C26.73930109 72.90954137 22.8482495 74.23747911 17.1875 76 C9.76038246 78.28231197 9.76038246 78.28231197 5.25 84.375 C2.83984375 85.73828125 2.83984375 85.73828125 0.1875 86.6875 C-0.69035156 87.01363281 -1.56820312 87.33976562 -2.47265625 87.67578125 C-4.75 88.375 -4.75 88.375 -6.75 88.375 C-6.66574855 77.19641647 -6.57092501 66.01797801 -6.46247292 54.83960152 C-6.41245327 49.6494427 -6.36612389 44.45930481 -6.328125 39.26904297 C-6.29134361 34.26339109 -6.24500349 29.25791188 -6.19193649 24.25240707 C-6.17335443 22.33940525 -6.15826068 20.42636636 -6.14665604 18.51330948 C-6.12985855 15.84088577 -6.10083995 13.16886084 -6.06884766 10.49658203 C-6.06668747 9.69960907 -6.06452728 8.90263611 -6.06230164 8.08151245 C-5.94723765 0.59472376 -5.94723765 0.59472376 0 0 Z " fill="#C0D4FD" transform="translate(157.75,123.625)"/>
<path d="M0 0 C0.69593262 0.80050781 1.39186523 1.60101562 2.10888672 2.42578125 C5.40929037 5.36442811 6.93094615 5.75321674 11.2578125 6.1875 C12.50723633 6.32591309 13.75666016 6.46432617 15.04394531 6.60693359 C15.70833618 6.67064148 16.37272705 6.73434937 17.05725098 6.79998779 C19.1567098 7.00306727 21.25117395 7.23478626 23.34667969 7.47509766 C26.33029761 7.81655225 29.31458119 8.15041572 32.29980469 8.47753906 C39.51575551 9.27452468 46.72259393 10.1283684 53.92034912 11.07617188 C55.46708417 11.27457411 57.01520155 11.46249542 58.56451416 11.63964844 C60.73965807 11.88869951 62.90811544 12.17093299 65.078125 12.4609375 C66.31981445 12.61353027 67.56150391 12.76612305 68.84082031 12.92333984 C72.99111212 14.33777469 74.03009419 16.16212166 76 20 C76.4375 23.25 76.4375 23.25 76 26 C66.53392746 32.31071503 44.22772213 25.98862155 33.40234375 23.98974609 C24.5760707 22.1623353 16.92877489 17.99642947 9.28808594 13.36328125 C6.80320575 11.88274658 4.28930267 10.49760313 1.7265625 9.15625 C0.94104004 8.74181641 0.15551758 8.32738281 -0.65380859 7.90039062 C-3.2588563 6.90065952 -5.23343161 6.83088087 -8 7 C-5.61042731 3.75700849 -3.7952131 1.49097658 0 0 Z " fill="#99B9FB" transform="translate(94,30)"/>
<path d="M0 0 C3.01000977 1.31591797 3.01000977 1.31591797 6.19140625 2.9921875 C6.77022552 3.29404465 7.3490448 3.59590179 7.94540405 3.90690613 C9.82218237 4.88811652 11.69243351 5.88106573 13.5625 6.875 C14.86042285 7.55849902 16.15868442 8.2413552 17.45727539 8.92358398 C19.42102178 9.95582081 21.38421666 10.98902361 23.34550476 12.02592468 C27.33359548 14.13328932 31.33980774 16.19875927 35.3671875 18.23046875 C36.31650146 18.71338379 37.26581543 19.19629883 38.24389648 19.69384766 C39.98404951 20.57804034 41.72812183 21.45458032 43.47680664 22.32177734 C49.14343261 25.2314923 53.9813714 28.33632435 57.14770508 34.08300781 C58.37846022 38.29528581 58.24577624 42.31071668 58.1953125 46.67578125 C58.1924826 47.6009404 58.18965271 48.52609955 58.18673706 49.47929382 C58.17557392 52.42382942 58.15047637 55.36805688 58.125 58.3125 C58.11496521 60.31314664 58.10584023 62.31379806 58.09765625 64.31445312 C58.07564722 69.2097535 58.04114391 74.10482457 58 79 C56.35 79.66 54.7 80.32 53 81 C52.98786972 80.17100945 52.98786972 80.17100945 52.97549438 79.32527161 C52.88934687 73.56614414 52.7898389 67.80735684 52.68261719 62.04858398 C52.64436615 59.90020466 52.60950653 57.75176213 52.578125 55.60327148 C52.53239063 52.51262854 52.47440944 49.42241919 52.4140625 46.33203125 C52.40251129 45.37351761 52.39096008 44.41500397 52.37905884 43.42744446 C52.28768411 36.9686095 52.28768411 36.9686095 50 31 C47.84744052 29.85666399 47.84744052 29.85666399 45 29 C43.59226972 28.34245552 42.19475008 27.66286476 40.8046875 26.96875 C40.01594238 26.57534424 39.22719727 26.18193848 38.41455078 25.77661133 C37.57649902 25.35532959 36.73844727 24.93404785 35.875 24.5 C34.9969873 24.06002686 34.11897461 23.62005371 33.21435547 23.16674805 C26.35451633 19.7147435 19.55271901 16.15958088 12.76782227 12.56298828 C5.90043559 8.92795318 -1.02993162 5.43386729 -8 2 C-8 1.34 -8 0.68 -8 0 C-5.04895755 -1.47552122 -3.18190531 -0.73111663 0 0 Z " fill="#6B95EB" transform="translate(94,37)"/>
<path d="M0 0 C0.81774399 0.00718552 1.63548798 0.01437103 2.47801208 0.02177429 C3.31626022 0.02223251 4.15450836 0.02269073 5.01815796 0.02316284 C6.79100458 0.0261858 8.56384854 0.03407341 10.33665466 0.0464325 C13.06030105 0.06469239 15.78360775 0.06694219 18.50730896 0.06669617 C20.22671296 0.07161112 21.94611464 0.07743935 23.66551208 0.08427429 C24.4852803 0.08538712 25.30504852 0.08649994 26.1496582 0.08764648 C31.88930783 0.13619504 31.88930783 0.13619504 33.00535583 1.25224304 C33.07779637 3.27188503 33.08912772 5.29391428 33.06785583 7.31474304 C33.0588324 8.4194696 33.04980896 9.52419617 33.04051208 10.66239929 C33.02891052 11.51704773 33.01730896 12.37169617 33.00535583 13.25224304 C31.06785583 13.81474304 31.06785583 13.81474304 29.00535583 14.25224304 C28.00535583 13.25224304 28.00535583 13.25224304 27.90769958 11.18583679 C27.94025167 8.87463888 27.97280375 6.56344096 28.00535583 4.25224304 C23.71535583 4.25224304 19.42535583 4.25224304 15.00535583 4.25224304 C15.00535583 15.14224304 15.00535583 26.03224304 15.00535583 37.25224304 C16.98535583 37.25224304 18.96535583 37.25224304 21.00535583 37.25224304 C21.00535583 38.90224304 21.00535583 40.55224304 21.00535583 42.25224304 C15.72535583 42.25224304 10.44535583 42.25224304 5.00535583 42.25224304 C4.67535583 40.93224304 4.34535583 39.61224304 4.00535583 38.25224304 C4.50035583 37.75724304 4.50035583 37.75724304 5.00535583 37.25224304 C6.65535583 37.25224304 8.30535583 37.25224304 10.00535583 37.25224304 C10.00535583 26.69224304 10.00535583 16.13224304 10.00535583 5.25224304 C5.71535583 5.25224304 1.42535583 5.25224304 -2.99464417 5.25224304 C-2.99464417 7.89224304 -2.99464417 10.53224304 -2.99464417 13.25224304 C-4.93214417 13.81474304 -4.93214417 13.81474304 -6.99464417 14.25224304 C-8.73314044 12.51374676 -8.16680713 10.17357934 -8.18214417 7.81474304 C-8.19632385 6.8260321 -8.21050354 5.83732117 -8.22511292 4.81864929 C-7.74959154 -0.47656332 -4.54765842 0.01847277 0 0 Z " fill="#333530" transform="translate(61.99464416503906,164.7477569580078)"/>
<path d="M0 0 C0.66 0.33 1.32 0.66 2 1 C1.89255351 11.90049102 1.77993125 22.80091501 1.66066074 33.70128345 C1.60544501 38.76250331 1.5520271 43.82372896 1.50268555 48.88500977 C1.45502218 53.76741812 1.40267855 58.64975572 1.34705925 63.5320797 C1.32664466 65.39681936 1.30793009 67.26157843 1.29092598 69.12635231 C1.26686222 71.73380178 1.23681025 74.34111745 1.20532227 76.94848633 C1.1995668 77.72316254 1.19381134 78.49783875 1.18788147 79.29598999 C1.14438174 82.45515818 1.00632226 84.98103321 0 88 C-0.99 88 -1.98 88 -3 88 C-3 59.29 -3 30.58 -3 1 C-2.01 0.67 -1.02 0.34 0 0 Z " fill="#9DBCFD" transform="translate(151,125)"/>
<path d="M0 0 C2.8125 1.5625 2.8125 1.5625 5 3 C5.125 5.625 5.125 5.625 4 9 C-1.03941752 13.01037615 -7.03281272 15.66501367 -13 18 C-13.50757862 16.58603098 -14.00574925 15.16868271 -14.5 13.75 C-14.91765625 12.56664062 -14.91765625 12.56664062 -15.34375 11.359375 C-16 9 -16 9 -16 5 C-14.28133783 3.9615789 -12.54955402 2.94485365 -10.8125 1.9375 C-9.84957031 1.36902344 -8.88664062 0.80054688 -7.89453125 0.21484375 C-4.61762822 -1.16048262 -3.3165847 -1.1204678 0 0 Z " fill="#D2F6B8" transform="translate(77,43)"/>
<path d="M0 0 C2.8183858 2.54563879 4.47504654 4.19223897 5 8 C5.10183594 8.67417969 5.20367187 9.34835938 5.30859375 10.04296875 C5.65548899 15.81404405 4.27910009 19.41239327 0.84375 24.046875 C-2.99758602 28.11608688 -6.96253081 29.85446649 -12.5 30.25 C-13.325 30.1675 -14.15 30.085 -15 30 C-13.82615929 26.47847786 -13.38673936 26.46695419 -10.25 24.875 C-5.32528821 21.88657525 -2.82235312 18.45913609 -1 13 C-0.34624471 8.66277276 -0.07452134 4.38320971 0 0 Z " fill="#D3F9B8" transform="translate(96,78)"/>
<path d="M0 0 C1.98 0.99 1.98 0.99 4 2 C4.33 7.61 4.66 13.22 5 19 C3.35 19.33 1.7 19.66 0 20 C0 13.4 0 6.8 0 0 Z " fill="#709DF7" transform="translate(148,214)"/>
</svg>
