<?xml version="1.0" encoding="UTF-8"?>
<svg version="1.1" xmlns="http://www.w3.org/2000/svg" width="300" height="230">
<path d="M0 0 C1.21734077 -0.0098568 1.21734077 -0.0098568 2.45927429 -0.01991272 C5.15147997 -0.03966236 7.84362983 -0.05131192 10.53588867 -0.0612793 C11.45454901 -0.06535482 12.37320934 -0.06943035 13.31970787 -0.07362938 C18.1818863 -0.0944971 23.04403645 -0.10879584 27.90625 -0.11816406 C32.93023468 -0.12923078 37.95377672 -0.16363164 42.97760487 -0.20333576 C46.83893156 -0.22947204 50.70015231 -0.23785323 54.56155968 -0.24144554 C56.41353025 -0.24631914 58.26549585 -0.25795511 60.11738014 -0.27648354 C62.71012132 -0.30081203 65.30171105 -0.29992172 67.89453125 -0.29296875 C68.65887482 -0.30577881 69.42321838 -0.31858887 70.21072388 -0.33178711 C73.90399027 -0.2957061 75.95947734 0.05970559 79.09428406 2.08137512 C82.63357827 5.70461601 82.27886164 8.74768805 82.25488281 13.56420898 C82.25502884 14.32527954 82.25517487 15.0863501 82.25532532 15.8704834 C82.25462735 18.39195584 82.24684036 20.91335488 82.23901367 23.43481445 C82.23714908 25.18073486 82.23572537 26.92665579 82.23472595 28.6725769 C82.23090401 33.27245523 82.22107647 37.87230209 82.21002197 42.47216797 C82.19980091 47.16413955 82.19522684 51.8561162 82.19018555 56.5480957 C82.17945393 65.75774496 82.16238136 74.96737084 82.14135742 84.17700195 C83.14280792 84.1658989 84.14425842 84.15479584 85.17605591 84.14335632 C94.62185041 84.04192089 104.06753415 83.96700812 113.51375008 83.91794109 C118.36999365 83.89186682 123.22579693 83.85650848 128.08178711 83.79980469 C132.76968578 83.74540738 137.45716144 83.71556509 142.14535141 83.70261574 C143.93233778 83.69338969 145.71930145 83.67537295 147.50610733 83.64835167 C150.01279654 83.6119575 152.51774654 83.60706075 155.0246582 83.609375 C155.76049637 83.59139862 156.49633453 83.57342224 157.25447083 83.55490112 C161.11240457 83.59334275 163.60171613 84.16226604 166.58615112 86.52497864 C170.44908439 90.53427882 170.2646633 93.48207338 170.25488281 98.8515625 C170.25502884 99.52499695 170.25517487 100.1984314 170.25532532 100.89227295 C170.25462917 103.11612174 170.24685074 105.33988656 170.23901367 107.5637207 C170.23714843 109.10642959 170.23572503 110.64913907 170.23472595 112.19184875 C170.23090912 116.25084063 170.22108593 120.30979668 170.21002197 124.36877441 C170.19978995 128.51122554 170.19522449 132.65368246 170.19018555 136.79614258 C170.17946293 144.92311214 170.16239649 153.05005259 170.14135742 161.17700195 C171.53161133 161.15959961 171.53161133 161.15959961 172.94995117 161.1418457 C174.14749023 161.13282227 175.3450293 161.12379883 176.57885742 161.11450195 C177.77381836 161.10290039 178.9687793 161.09129883 180.19995117 161.0793457 C183.14135742 161.17700195 183.14135742 161.17700195 184.14135742 162.17700195 C184.32885742 165.11450195 184.32885742 165.11450195 184.14135742 168.17700195 C181.61375576 170.70460362 180.77738324 170.427418 177.27810669 170.42868423 C176.2442729 170.43389973 175.21043911 170.43911522 174.14527702 170.44448876 C173.00074625 170.44002732 171.85621548 170.43556588 170.67700195 170.43096924 C169.46797274 170.43408922 168.25894352 170.4372092 167.01327705 170.44042373 C163.64671285 170.44704343 160.28037027 170.44463035 156.91381931 170.43845129 C153.28732586 170.43394239 149.66085234 170.44090276 146.03436279 170.44641113 C138.92587124 170.45532355 131.81742182 170.45337493 124.70892859 170.44758585 C118.93381751 170.44307661 113.15871828 170.44245325 107.38360596 170.44463348 C106.1526182 170.44509318 106.1526182 170.44509318 104.89676201 170.44556217 C103.22982454 170.44620159 101.56288707 170.44685002 99.8959496 170.44750735 C84.24996541 170.45321606 68.60400462 170.44664429 52.95802426 170.43590662 C39.52107672 170.42697062 26.08416372 170.42852251 12.6472168 170.43774414 C-2.94121177 170.44843724 -18.52961981 170.45266669 -34.11805153 170.44651961 C-35.77899805 170.44588249 -37.43994458 170.44525375 -39.10089111 170.44463348 C-40.32684897 170.44417066 -40.32684897 170.44417066 -41.57757366 170.44369848 C-47.34849404 170.44196865 -53.11940145 170.44489282 -58.89031982 170.44959259 C-65.91920464 170.45519078 -72.94804476 170.45370745 -79.97692442 170.4430311 C-83.56598338 170.43776 -87.15496771 170.43574195 -90.74402618 170.44232941 C-94.62748908 170.44934964 -98.51082866 170.44099076 -102.39428711 170.43096924 C-104.11108327 170.4376614 -104.11108327 170.4376614 -105.86256218 170.44448876 C-107.41331286 170.43666552 -107.41331286 170.43666552 -108.99539185 170.42868423 C-109.892726 170.42835953 -110.79006016 170.42803483 -111.71458626 170.42770028 C-113.85864258 170.17700195 -113.85864258 170.17700195 -115.85864258 168.17700195 C-116.04614258 165.11450195 -116.04614258 165.11450195 -115.85864258 162.17700195 C-115.52864258 161.84700195 -115.19864258 161.51700195 -114.85864258 161.17700195 C-110.56864258 161.17700195 -106.27864258 161.17700195 -101.85864258 161.17700195 C-101.85864258 135.76700195 -101.85864258 110.35700195 -101.85864258 84.17700195 C-99.87864258 83.18700195 -99.87864258 83.18700195 -97.85864258 82.17700195 C-97.85864258 77.88700195 -97.85864258 73.59700195 -97.85864258 69.17700195 C-99.17864258 68.51700195 -100.49864258 67.85700195 -101.85864258 67.17700195 C-101.93990367 64.44723131 -101.99925921 61.71990025 -102.04614258 58.98950195 C-102.08384766 57.83611328 -102.08384766 57.83611328 -102.12231445 56.65942383 C-102.18251192 51.98408727 -101.92647222 48.94801951 -98.85864258 45.17700195 C-95.85763242 42.18208588 -93.4000493 41.82882865 -89.22059631 41.80374146 C-88.10605324 41.8199202 -88.10605324 41.8199202 -86.96899414 41.83642578 C-86.17837082 41.8359877 -85.3877475 41.83554962 -84.57316589 41.83509827 C-81.96494689 41.83718506 -79.35737402 41.86051057 -76.74926758 41.8840332 C-74.93894807 41.88962956 -73.12862402 41.89389947 -71.31829834 41.89689636 C-66.55722474 41.90834205 -61.79642639 41.93780687 -57.03546143 41.9710083 C-52.17577844 42.00171512 -47.3160509 42.01540301 -42.45629883 42.03051758 C-32.92362592 42.06267682 -23.39115715 42.11386987 -13.85864258 42.17700195 C-13.89006348 40.58045776 -13.89006348 40.58045776 -13.92211914 38.95166016 C-13.9946822 34.99151129 -14.04050108 31.03142085 -14.07836914 27.07080078 C-14.09844763 25.35878609 -14.1257165 23.64683967 -14.16040039 21.93505859 C-14.20908659 19.46996188 -14.23164831 17.00577405 -14.24926758 14.5402832 C-14.26991272 13.77863358 -14.29055786 13.01698395 -14.31182861 12.23225403 C-14.31339725 8.49208587 -13.99917987 6.39602698 -11.95922852 3.21679688 C-8.23723536 -0.3974817 -4.93727268 0.01723205 0 0 Z " fill="#3F4A4C" transform="translate(115.858642578125,59.822998046875)"/>
<path d="M0 0 C1.08628693 0.00303635 1.08628693 0.00303635 2.19451904 0.00613403 C3.3334964 0.00350555 3.3334964 0.00350555 4.4954834 0.00082397 C7.0175807 -0.00359473 9.53960847 -0.00065649 12.06170654 0.00271606 C13.80666111 0.00204303 15.55161558 0.00107301 17.29656982 -0.00018311 C20.95852549 -0.0016601 24.62045682 0.00049454 28.28240967 0.00515747 C32.98715147 0.01085476 37.69183622 0.00757577 42.39657593 0.00158501 C46.00124546 -0.00202055 49.60590136 -0.00088204 53.21057129 0.0017128 C54.94580085 0.00238208 56.68103163 0.0015536 58.41625977 -0.00076675 C60.83717142 -0.0032932 63.25798941 0.00054718 65.67889404 0.00613403 C66.40308533 0.0041098 67.12727661 0.00208557 67.87341309 0 C72.82244388 0.0212659 72.82244388 0.0212659 73.93670654 1.13552856 C74.03337591 3.0971446 74.05857752 5.06229501 74.05696106 7.02629089 C74.05902306 8.94678001 74.05902306 8.94678001 74.06112671 10.90606689 C74.05758709 12.33810448 74.05395228 13.77014183 74.05023193 15.20217896 C74.04995007 16.69984434 74.05010778 18.19750987 74.05067444 19.69517517 C74.05096245 23.77351028 74.04506518 27.85181624 74.03810048 31.93014455 C74.0318675 36.18760485 74.03126319 40.44506575 74.03007507 44.70252991 C74.02696159 52.77026043 74.01874798 60.83797748 74.00872558 68.90570205 C73.99547987 79.80365299 73.99006467 90.7016076 73.98422337 101.59956455 C73.9748081 118.77822933 73.9548893 135.95686565 73.93670654 153.13552856 C47.53670654 153.13552856 21.13670654 153.13552856 -6.06329346 153.13552856 C-6.06329346 146.53552856 -6.06329346 139.93552856 -6.06329346 133.13552856 C-2.76329346 132.80552856 0.53670654 132.47552856 3.93670654 132.13552856 C5.01755175 128.499332 5.01755175 128.499332 4.93670654 126.13552856 C1.30670654 125.80552856 -2.32329346 125.47552856 -6.06329346 125.13552856 C-6.08641245 108.98520883 -6.10427268 92.83489587 -6.11510563 76.68456364 C-6.12026857 69.18619792 -6.12731122 61.68784265 -6.13873291 54.18948364 C-6.14867982 47.65622353 -6.1551469 41.12297098 -6.15738195 34.5897035 C-6.15868905 31.1283105 -6.16177482 27.66693914 -6.16902351 24.20555305 C-6.17703752 20.3476533 -6.17728459 16.489775 -6.17681885 12.63186646 C-6.18041412 11.47597015 -6.1840094 10.32007385 -6.18771362 9.12915039 C-6.18633896 8.08442062 -6.18496429 7.03969086 -6.18354797 5.96330261 C-6.18446977 5.04980577 -6.18539156 4.13630892 -6.18634129 3.19513035 C-5.94271427 -0.88275262 -3.50550374 0.01506309 0 0 Z " fill="#0FCFD0" transform="translate(116.06329345703125,67.86447143554688)"/>
<path d="M0 0 C0.71484055 0.00202423 1.42968109 0.00404846 2.16618347 0.00613403 C2.91574814 0.00438171 3.66531281 0.00262939 4.43759155 0.00082397 C6.92722354 -0.00359463 9.41678508 -0.00065653 11.90641785 0.00271606 C13.62895217 0.00204303 15.35148639 0.001073 17.07402039 -0.00018311 C20.68889772 -0.00166009 24.3037504 0.00049449 27.91862488 0.00515747 C32.56283277 0.01085476 37.20698289 0.00757576 41.85118866 0.00158501 C45.40953511 -0.00202059 48.96786775 -0.00088203 52.5262146 0.0017128 C54.23911547 0.00238207 55.95201757 0.00155363 57.66491699 -0.00076675 C60.05469606 -0.00329326 62.44438026 0.00054727 64.83415222 0.00613403 C65.90641304 0.00309769 65.90641304 0.00309769 67.00033569 0 C71.88590516 0.02126588 71.88590516 0.02126588 73.00016785 1.13552856 C73.09571184 2.56499328 73.12205223 3.99915521 73.12042236 5.43180847 C73.12248436 6.82220589 73.12248436 6.82220589 73.12458801 8.24069214 C73.1191951 9.77817108 73.1191951 9.77817108 73.11369324 11.34671021 C73.11383926 12.41974899 73.11398529 13.49278778 73.11413574 14.5983429 C73.11343609 18.16414372 73.10564123 21.72989305 73.0978241 25.29568481 C73.0959601 27.7604825 73.09453611 30.22528055 73.09353638 32.69007874 C73.08970972 39.19206761 73.07987817 45.69403432 73.0688324 52.1960144 C73.05619732 59.9894779 73.05221674 67.78295279 73.04637909 75.57642365 C73.03666649 87.42947406 73.01751096 99.28247578 73.00016785 111.13552856 C46.93016785 111.13552856 20.86016785 111.13552856 -5.99983215 111.13552856 C-5.99983215 105.85552856 -5.99983215 100.57552856 -5.99983215 95.13552856 C-1.04983215 94.80552856 3.90016785 94.47552856 9.00016785 94.13552856 C9.33016785 92.48552856 9.66016785 90.83552856 10.00016785 89.13552856 C8.00400231 87.13936303 4.18314821 87.72569429 1.43766785 87.57302856 C0.72674988 87.52984497 0.01583191 87.48666138 -0.71662903 87.44216919 C-2.47745127 87.3358108 -4.23861535 87.2351401 -5.99983215 87.13552856 C-6.0053006 86.16833138 -6.0053006 86.16833138 -6.01087952 85.18159485 C-6.05262856 78.48186962 -6.12192043 71.78283433 -6.20735168 65.08352661 C-6.23561053 62.58196914 -6.25680045 60.08032155 -6.27082825 57.5786438 C-6.29218912 53.98645731 -6.33880623 50.39535993 -6.39045715 46.80349731 C-6.39168579 45.68154465 -6.39291443 44.55959198 -6.3941803 43.40364075 C-6.41389893 42.36278824 -6.43361755 41.32193573 -6.45393372 40.24954224 C-6.46281616 39.33242966 -6.47169861 38.41531708 -6.48085022 37.47041321 C-7.15993514 34.4152299 -8.49303914 33.8691394 -10.99983215 32.13552856 C-11.39045715 28.99880981 -11.39045715 28.99880981 -11.24983215 25.44802856 C-11.2137384 24.26853638 -11.17764465 23.08904419 -11.14045715 21.87380981 C-11.0940509 20.970177 -11.04764465 20.06654419 -10.99983215 19.13552856 C-10.03110168 18.88996216 -10.03110168 18.88996216 -9.0428009 18.63943481 C-6.56808239 17.18715694 -6.56808239 17.18715694 -6.4256134 13.47537231 C-6.36843005 12.00855286 -6.33146085 10.54083759 -6.31233215 9.07302856 C-6.05430252 0.02635313 -6.05430252 0.02635313 0 0 Z " fill="#CEE5B1" transform="translate(28.999832153320313,109.86447143554688)"/>
<path d="M0 0 C0.71484055 0.00202423 1.42968109 0.00404846 2.16618347 0.00613403 C2.91574814 0.00438171 3.66531281 0.00262939 4.43759155 0.00082397 C6.92722354 -0.00359463 9.41678508 -0.00065653 11.90641785 0.00271606 C13.62895217 0.00204303 15.35148639 0.001073 17.07402039 -0.00018311 C20.68889772 -0.00166009 24.3037504 0.00049449 27.91862488 0.00515747 C32.56283277 0.01085476 37.20698289 0.00757576 41.85118866 0.00158501 C45.40953511 -0.00202059 48.96786775 -0.00088203 52.5262146 0.0017128 C54.23911547 0.00238207 55.95201757 0.00155363 57.66491699 -0.00076675 C60.05469606 -0.00329326 62.44438026 0.00054727 64.83415222 0.00613403 C65.90641304 0.00309769 65.90641304 0.00309769 67.00033569 0 C71.88590516 0.02126588 71.88590516 0.02126588 73.00016785 1.13552856 C73.09438525 3.25234174 73.11759546 5.37233615 73.11369324 7.49124146 C73.11381377 8.16539062 73.11393431 8.83953978 73.11405849 9.5341177 C73.11330958 11.72550648 73.10568239 13.91681117 73.0978241 16.10818481 C73.09635461 17.45742756 73.09533394 18.80667088 73.09477234 20.15591431 C73.08952024 25.16996106 73.07555915 30.18399563 73.06266785 35.19802856 C73.04204285 46.39740356 73.02141785 57.59677856 73.00016785 69.13552856 C46.93016785 69.13552856 20.86016785 69.13552856 -5.99983215 69.13552856 C-5.99983215 57.91552856 -5.99983215 46.69552856 -5.99983215 35.13552856 C-3.35983215 34.80552856 -0.71983215 34.47552856 2.00016785 34.13552856 C2.66016785 32.15552856 3.32016785 30.17552856 4.00016785 28.13552856 C0.70016785 27.80552856 -2.59983215 27.47552856 -5.99983215 27.13552856 C-6.02869752 22.82304247 -6.0465847 18.51058095 -6.06233215 14.19802856 C-6.07071106 12.96632935 -6.07908997 11.73463013 -6.08772278 10.46560669 C-6.09094543 9.29578247 -6.09416809 8.12595825 -6.0974884 6.92068481 C-6.10272522 5.83666382 -6.10796204 4.75264282 -6.11335754 3.63577271 C-5.91173759 -0.80463582 -3.94524761 0.01717285 0 0 Z " fill="#83AFFD" transform="translate(203.9998321533203,151.86447143554688)"/>
<path d="M0 0 C2.31 0 4.62 0 7 0 C7.41507813 1.05960937 7.83015625 2.11921875 8.2578125 3.2109375 C10.97317835 9.50665746 10.97317835 9.50665746 15 15 C18.79812538 16.44650209 21.78071466 16.74385216 25.828125 16.796875 C29.28584094 17.01830508 30.51880383 17.66620163 33 20 C32.74991089 23.81114053 32.52388606 25.5105105 29.6796875 28.16796875 C28.75414062 28.83441406 27.82859375 29.50085938 26.875 30.1875 C23.06825237 33.26817666 23.06825237 33.26817666 21.5625 37.70703125 C21.87779141 40.52494822 22.41673485 43.22651471 23 46 C23.0675185 47.72797356 23.09235774 49.45846562 23.0625 51.1875 C23.041875 52.445625 23.02125 53.70375 23 55 C19.0360142 56.23324003 17.08573284 56.51731065 13.26171875 54.6953125 C11.36861518 53.58353043 9.49604314 52.43585577 7.6484375 51.25 C4.45475748 49.7426584 3.29941093 49.87070635 0 51 C-2.55998928 52.21999489 -5.01729199 53.57203762 -7.5 54.94140625 C-10.26955086 56.11413794 -12.02650746 56.43698286 -15 56 C-17 53 -17 53 -16.37109375 49.375 C-16.21753418 48.6735083 -16.06397461 47.9720166 -15.90576172 47.24926758 C-14.37326693 40.60200173 -14.37326693 40.60200173 -15.97607422 34.22509766 C-18.24479119 31.53406181 -20.72504185 29.54367133 -23.5234375 27.39453125 C-26 25 -26 25 -26.3515625 21.69921875 C-26.17753906 20.36310547 -26.17753906 20.36310547 -26 19 C-22.40239056 16.74704162 -19.42331165 16.90817636 -15.25 16.8125 C-10.38231712 16.27403146 -10.38231712 16.27403146 -6.56933594 13.44189453 C-3.78072513 9.23744464 -1.83503482 4.68446777 0 0 Z " fill="#414A4B" transform="translate(146,1)"/>
<path d="M0 0 C0.85464844 -0.01546875 1.70929688 -0.0309375 2.58984375 -0.046875 C6.38783615 -0.02317458 8.79472799 0.05960878 12.05859375 2.09765625 C13.99946619 5.33244365 14.0665114 7.67881911 14.0625 11.4375 C14.08441406 12.64277344 14.10632813 13.84804687 14.12890625 15.08984375 C13.32204406 19.46494124 11.98365008 20.78944683 8.5 23.5 C5.14522211 25.15353981 1.7434185 26.50259718 -1.734375 27.875 C-4.73866563 29.23157222 -4.73866563 29.23157222 -5.390625 32.1875 C-5.42671875 32.950625 -5.4628125 33.71375 -5.5 34.5 C-4.29601562 34.47679687 -3.09203125 34.45359375 -1.8515625 34.4296875 C-0.27604785 34.41093137 1.29947348 34.39273101 2.875 34.375 C3.6690625 34.35824219 4.463125 34.34148437 5.28125 34.32421875 C7.35492015 34.30664527 9.42883241 34.39664832 11.5 34.5 C12.16 35.16 12.82 35.82 13.5 36.5 C12.94444444 41.05555556 12.94444444 41.05555556 11.5 42.5 C8.26014656 42.83413632 5.00486547 42.82499508 1.75 42.875 C0.38875 42.93107422 0.38875 42.93107422 -1 42.98828125 C-5.53565233 43.04796089 -7.805629 42.98798365 -11.6015625 40.3203125 C-14.66145932 35.77453986 -14.44912444 31.78000321 -13.5 26.5 C-10.05746045 21.03942003 -3.41717276 18.65253189 2.5 16.5 C3.49 16.5 4.48 16.5 5.5 16.5 C5.5 13.86 5.5 11.22 5.5 8.5 C1.87 8.5 -1.76 8.5 -5.5 8.5 C-5.45875 9.94375 -5.4175 11.3875 -5.375 12.875 C-5.3046875 15.3359375 -5.3046875 15.3359375 -5.5 17.5 C-6.16 18.16 -6.82 18.82 -7.5 19.5 C-12.05555556 18.94444444 -12.05555556 18.94444444 -13.5 17.5 C-13.67858965 15.40083974 -13.76798477 13.29377312 -13.8125 11.1875 C-13.84988281 10.03636719 -13.88726562 8.88523438 -13.92578125 7.69921875 C-13.5 4.5 -13.5 4.5 -12.07421875 2.11328125 C-8.15522666 -0.34277904 -4.53248747 -0.08203597 0 0 Z " fill="#50514F" transform="translate(62.5,144.5)"/>
<path d="M0 0 C0.85464844 -0.01546875 1.70929688 -0.0309375 2.58984375 -0.046875 C6.38811512 -0.02317284 8.80089245 0.06822948 12.07421875 2.08984375 C14.02167206 5.38184016 13.9284223 7.76104818 13.8125 11.5625 C13.78800781 12.79097656 13.76351562 14.01945313 13.73828125 15.28515625 C13.5 18.5 13.5 18.5 12.5 21.5 C12.83 22.16 13.16 22.82 13.5 23.5 C13.70098366 25.76537295 13.81310561 28.03907129 13.875 30.3125 C13.92398438 31.53582031 13.97296875 32.75914062 14.0234375 34.01953125 C13.5 37.5 13.5 37.5 11.5078125 40.41015625 C7.53105728 43.17322644 4.72994692 43.24753748 0 43.125 C-0.74636719 43.14433594 -1.49273437 43.16367188 -2.26171875 43.18359375 C-6.38827168 43.14707558 -8.10074706 42.79853113 -11.50390625 40.25390625 C-13.58028695 37.38923229 -14.11964725 36.27329779 -13.9375 32.8125 C-13.91558594 32.04550781 -13.89367187 31.27851563 -13.87109375 30.48828125 C-13.5 28.5 -13.5 28.5 -11.5 26.5 C-6.94444444 27.05555556 -6.94444444 27.05555556 -5.5 28.5 C-5.45919217 30.49958364 -5.45745644 32.50045254 -5.5 34.5 C-1.87 34.5 1.76 34.5 5.5 34.5 C5.5 31.86 5.5 29.22 5.5 26.5 C4.695625 26.273125 3.89125 26.04625 3.0625 25.8125 C0.5 24.5 0.5 24.5 -0.5 22.0625 C-0.5 19.5 -0.5 19.5 0.75 17.6875 C2.5 16.5 2.5 16.5 5.5 16.5 C5.5 13.86 5.5 11.22 5.5 8.5 C1.87 8.5 -1.76 8.5 -5.5 8.5 C-5.5 10.15 -5.5 11.8 -5.5 13.5 C-6.16 14.16 -6.82 14.82 -7.5 15.5 C-12.05555556 14.94444444 -12.05555556 14.94444444 -13.5 13.5 C-13.73828125 11.57421875 -13.73828125 11.57421875 -13.8125 9.1875 C-13.84988281 8.40761719 -13.88726562 7.62773437 -13.92578125 6.82421875 C-13.5 4.5 -13.5 4.5 -12.07421875 2.23828125 C-8.17867985 -0.39224198 -4.59507134 -0.08316871 0 0 Z " fill="#4E4F51" transform="translate(237.5,165.5)"/>
<path d="M0 0 C1.59134766 -0.02513672 1.59134766 -0.02513672 3.21484375 -0.05078125 C6.0625 0.3125 6.0625 0.3125 7.72216797 1.37939453 C9.73894393 4.28810711 9.43257955 7.19672004 9.35546875 10.60546875 C9.35122391 11.31149734 9.34697906 12.01752594 9.34260559 12.74494934 C9.32583034 14.99702303 9.28818243 17.24819742 9.25 19.5 C9.23495157 21.02798185 9.22126344 22.55597776 9.20898438 24.08398438 C9.17593089 27.82716872 9.12415832 31.56968196 9.0625 35.3125 C10.733125 35.250625 10.733125 35.250625 12.4375 35.1875 C16.0625 35.3125 16.0625 35.3125 18.0625 37.3125 C17.50694444 41.86805556 17.50694444 41.86805556 16.0625 43.3125 C12.25661856 43.56458722 8.43824544 43.49772344 4.625 43.5 C3.01141602 43.51836914 3.01141602 43.51836914 1.36523438 43.53710938 C0.33849609 43.53904297 -0.68824219 43.54097656 -1.74609375 43.54296875 C-3.16619751 43.54913208 -3.16619751 43.54913208 -4.61499023 43.55541992 C-6.9375 43.3125 -6.9375 43.3125 -8.9375 41.3125 C-8.38194444 36.75694444 -8.38194444 36.75694444 -6.9375 35.3125 C-4.2975 35.3125 -1.6575 35.3125 1.0625 35.3125 C1.0625 26.4025 1.0625 17.4925 1.0625 8.3125 C-1.5775 8.3125 -4.2175 8.3125 -6.9375 8.3125 C-7.5975 7.6525 -8.2575 6.9925 -8.9375 6.3125 C-8.21255983 0.51297865 -5.34103204 0.01942193 0 0 Z " fill="#4A5252" transform="translate(144.9375,122.6875)"/>
<path d="M0 0 C2.64465038 3.1254959 3.84414715 6.08788267 5 10 C5.62648437 10.04898437 6.25296875 10.09796875 6.8984375 10.1484375 C7.71570313 10.22320312 8.53296875 10.29796875 9.375 10.375 C10.18710938 10.44460937 10.99921875 10.51421875 11.8359375 10.5859375 C14 11 14 11 16 13 C15.01 13.7425 14.02 14.485 13 15.25 C10.61184392 17.57088408 10.03698348 18.71500969 9.6015625 22.0703125 C9.6228129 25.06661836 9.73921611 28.01547322 10 31 C8.96875 30.505 7.9375 30.01 6.875 29.5 C3.42307022 28.03849747 0.78317988 27.50654175 -3 28 C-5.71126384 29.42621684 -5.71126384 29.42621684 -8 31 C-8.66 31 -9.32 31 -10 31 C-9.85820312 30.29875 -9.71640625 29.5975 -9.5703125 28.875 C-8.60745461 23.02507048 -8.60745461 23.02507048 -10.26953125 17.48828125 C-11.75924838 15.54502027 -13.27931786 13.74063207 -15 12 C-14.38511719 11.90203125 -13.77023438 11.8040625 -13.13671875 11.703125 C-8.19963215 10.89828138 -8.19963215 10.89828138 -4.125 8.25 C-3.568125 7.13625 -3.568125 7.13625 -3 6 C-2.1646875 4.39125 -2.1646875 4.39125 -1.3125 2.75 C-0.879375 1.8425 -0.44625 0.935 0 0 Z " fill="#F6D27D" transform="translate(149,14)"/>
<path d="M0 0 C1.11246094 -0.00257812 2.22492187 -0.00515625 3.37109375 -0.0078125 C4.53769531 -0.00007813 5.70429687 0.00765625 6.90625 0.015625 C8.07285156 0.00789063 9.23945312 0.00015625 10.44140625 -0.0078125 C11.55386719 -0.00523438 12.66632812 -0.00265625 13.8125 0 C14.83666016 0.00225586 15.86082031 0.00451172 16.91601562 0.00683594 C19.40625 0.265625 19.40625 0.265625 21.40625 2.265625 C21.65625 4.765625 21.65625 4.765625 21.40625 7.265625 C18.75925384 9.91262116 17.50230591 9.52312267 13.8125 9.53125 C12.70003906 9.53382812 11.58757813 9.53640625 10.44140625 9.5390625 C9.27480469 9.53132813 8.10820313 9.52359375 6.90625 9.515625 C5.73964844 9.52335937 4.57304688 9.53109375 3.37109375 9.5390625 C2.25863281 9.53648438 1.14617188 9.53390625 0 9.53125 C-1.02416016 9.52899414 -2.04832031 9.52673828 -3.10351562 9.52441406 C-5.59375 9.265625 -5.59375 9.265625 -7.59375 7.265625 C-7.84375 4.765625 -7.84375 4.765625 -7.59375 2.265625 C-4.94675384 -0.38137116 -3.68980591 0.00812733 0 0 Z " fill="#3E484A" transform="translate(32.59375,37.734375)"/>
<path d="M0 0 C3.30883795 1.69289384 5.34165852 3.49296619 7.6875 6.375 C8.125 9.0625 8.125 9.0625 7.6875 11.375 C5.6875 13.375 5.6875 13.375 3.30078125 13.75 C-0.13831258 13.25649775 -0.98979888 12.05446807 -3.125 9.375 C-3.72957031 8.6325 -4.33414062 7.89 -4.95703125 7.125 C-5.40433594 6.5475 -5.85164063 5.97 -6.3125 5.375 C-3.99538061 -1.0798326 -3.99538061 -1.0798326 0 0 Z " fill="#3E494A" transform="translate(270.3125,52.625)"/>
<path d="M0 0 C1.2684375 0.2475 1.2684375 0.2475 2.5625 0.5 C3.4375 3.0625 3.4375 3.0625 3.5625 6.5 C2.01272015 9.36509116 0.15359917 11.52664633 -2.4375 13.5 C-5.8125 13.9375 -5.8125 13.9375 -8.4375 13.5 C-9.0975 11.85 -9.7575 10.2 -10.4375 8.5 C-4.52065098 0.65754923 -4.52065098 0.65754923 0 0 Z " fill="#3D494B" transform="translate(274.4375,67.5)"/>
<path d="M0 0 C2.475 0.99 2.475 0.99 5 2 C5.4375 4.625 5.4375 4.625 5 8 C3.00839004 10.54858563 0.81777976 12.41317579 -2 14 C-4.66636347 13.94203558 -6.09283191 13.90716809 -8 12 C-8.3125 9.67578125 -8.3125 9.67578125 -8 7 C-6.25 4.98046875 -6.25 4.98046875 -4 3.1875 C-3.2575 2.58292969 -2.515 1.97835937 -1.75 1.35546875 C-1.1725 0.90816406 -0.595 0.46085937 0 0 Z " fill="#3E494B" transform="translate(288,52)"/>
<path d="M0 0 C4.0732728 0.53797943 5.48972575 1.79866882 8.1796875 4.77734375 C9.3125 6.4375 9.3125 6.4375 9.8125 9.1875 C9.3125 11.4375 9.3125 11.4375 7.3125 13.4375 C5.0625 13.9375 5.0625 13.9375 2.3125 13.4375 C-0.14761109 11.75883596 -2.02430259 9.90997132 -3.6875 7.4375 C-4.125 4.125 -4.125 4.125 -3.6875 1.4375 C-2.6875 0.4375 -2.6875 0.4375 0 0 Z " fill="#3E484A" transform="translate(283.6875,67.5625)"/>
</svg>
